<svg width="282" height="282" viewBox="0 0 282 282" fill="none" xmlns="http://www.w3.org/2000/svg">
<rect width="282" height="282" rx="20" fill="#C1C4DE"/>
<mask id="mask0_45_51" style="mask-type:alpha" maskUnits="userSpaceOnUse" x="0" y="0" width="282" height="282">
<rect width="282" height="282" rx="20" fill="#C1C4DE"/>
</mask>
<g mask="url(#mask0_45_51)">>
<path d="M289.623 34.0625C277.604 62.9095 265.632 90.8609 249.595 118.213C247.586 121.639 245.14 124.952 243.267 128.423C240.311 133.904 238.24 142.311 239.003 148.227C240.787 162.051 259.404 174.196 273.116 180.709C282.796 185.306 291.233 191.694 302.003 194.622" stroke="white" stroke-opacity="0.8" stroke-width="3" stroke-linecap="round"/>
<path d="M274.791 0.601562C259.367 39.8402 238.002 77.3596 217.421 114.565C214.844 119.225 211.704 123.732 209.302 128.453C205.508 135.908 202.85 147.344 203.829 155.391C206.119 174.195 230.009 190.715 247.606 199.574C259.965 206.477 269.355 212.989 284.675 218.499" stroke="white" stroke-opacity="0.8" stroke-width="3" stroke-linecap="round"/>
<path d="M269.283 -54C246.256 1.69639 223.321 55.6634 192.597 108.474C188.749 115.088 184.062 121.485 180.475 128.187C174.811 138.769 170.843 155.001 172.305 166.423C175.723 193.114 211.389 216.563 237.66 229.138C256.204 238.014 272.367 250.346 293 256" stroke="white" stroke-opacity="0.8" stroke-width="3" stroke-linecap="round"/>
</g>
</svg>
