<svg width="570" height="522" viewBox="0 0 570 522" fill="none" xmlns="http://www.w3.org/2000/svg" xmlns:xlink="http://www.w3.org/1999/xlink">
<rect x="30.4297" y="17.5156" width="505.626" height="502.15" rx="30" fill="#6D708F"/>
<mask id="mask0_46_80" style="mask-type:alpha" maskUnits="userSpaceOnUse" x="30" y="17" width="507" height="506">
<rect x="30.4297" y="17.5156" width="505.626" height="504.485" rx="30" fill="#C1C4DE"/>
</mask>
<g mask="url(#mask0_46_80)">
<path d="M539.57 44.375C518.02 95.981 472.641 178.888 443.886 227.82C440.285 233.948 435.898 239.876 432.541 246.086C427.24 255.891 423.526 270.93 424.895 281.513C428.094 306.244 461.474 327.971 486.06 339.622C503.416 347.847 518.543 359.273 537.853 364.512" stroke="white" stroke-opacity="0.8" stroke-width="3" stroke-linecap="round"/>
<path d="M509.137 5.83594C481.482 76.0321 423.106 154.732 386.206 221.291C381.584 229.627 375.955 237.69 371.647 246.137C364.844 259.474 360.079 279.931 361.835 294.326C365.94 327.966 408.776 357.52 440.327 373.368C462.486 385.717 508.588 410.544 536.057 420.401" stroke="white" stroke-opacity="0.8" stroke-width="3" stroke-linecap="round"/>
<path d="M490.994 -70.0703C449.707 29.5681 396.777 115.924 341.688 210.4C334.788 222.232 326.385 233.677 319.953 245.666C309.797 264.597 302.683 293.635 305.305 314.068C311.433 361.816 375.382 403.766 422.486 426.262C455.736 442.142 503.742 471.596 540.737 481.711" stroke="white" stroke-opacity="0.8" stroke-width="3" stroke-linecap="round"/>
</g>
</svg>